<svg width="24.000000" height="24.000000" viewBox="0 0 24 24" fill="none" xmlns="http://www.w3.org/2000/svg" xmlns:xlink="http://www.w3.org/1999/xlink">
	<desc>
			Created with Pixso.
	</desc>
	<defs>
		<clipPath id="clip4_1832">
			<rect id="phone" width="24.000000" height="24.000000" fill="white" fill-opacity="0"/>
		</clipPath>
	</defs>
	<rect id="phone" width="24.000000" height="24.000000" fill="#FFFFFF" fill-opacity="0"/>
	<g clip-path="url(#clip4_1832)">
		<path id="Vector" d="M22 19.9199C22.001 20.1987 21.9441 20.4741 21.8325 20.7295C21.7209 20.9849 21.5571 21.2139 21.3521 21.4019C21.1467 21.5903 20.9045 21.7334 20.6406 21.8228C20.377 21.9121 20.0974 21.9453 19.8198 21.9199C16.7427 21.5859 13.7869 20.5342 11.1899 18.8501C8.77368 17.3149 6.72534 15.2661 5.18994 12.8501C3.5 10.2412 2.44824 7.271 2.11987 4.18018C2.09497 3.90332 2.12793 3.625 2.21655 3.36182C2.30518 3.09863 2.44751 2.85693 2.63477 2.65186C2.82178 2.44678 3.0498 2.28271 3.30371 2.17041C3.55762 2.05859 3.83228 2.00049 4.10986 2L7.10986 2C7.59521 1.99512 8.06567 2.16699 8.43359 2.4834C8.80176 2.80029 9.04199 3.23975 9.10986 3.72021C9.23657 4.68018 9.47144 5.62305 9.80981 6.53027C9.94458 6.88818 9.97363 7.27686 9.8938 7.65088C9.81396 8.0249 9.62891 8.36816 9.35986 8.64014L8.08984 9.91016C9.51343 12.4136 11.5864 14.4863 14.0898 15.9102L15.3599 14.6401C15.6318 14.3711 15.9751 14.186 16.3491 14.106C16.7229 14.0264 17.1121 14.0557 17.47 14.1899C18.3772 14.5288 19.3198 14.7637 20.28 14.8901C20.7656 14.9585 21.2092 15.2031 21.5264 15.5776C21.8435 15.9517 22.0122 16.4297 22 16.9199L22 19.9199Z" stroke="#232521" stroke-opacity="1.000000" stroke-width="1.000000" stroke-linejoin="round"/>
	</g>
</svg>
