<svg width="91" height="118" viewBox="0 0 91 118" fill="none" xmlns="http://www.w3.org/2000/svg">
<path d="M78.0001 0.000151661L90.091 12.4022L73.3051 16.6722L78.0001 0.000151661ZM80.5293 4.05073C80.752 5.03084 80.9664 6.02008 81.1725 7.01761L78.2345 7.6245C78.0324 6.64601 77.8221 5.67599 77.6039 4.71525L80.5293 4.05073ZM81.7618 10.0159C81.9461 11.0033 82.1222 11.9978 82.2899 12.9987L79.3312 13.4944C79.1665 12.5117 78.9936 11.5354 78.8127 10.5664L81.7618 10.0159ZM82.7662 16.0108C82.9145 17.0071 83.0544 18.0089 83.1857 19.0155L80.211 19.4037C80.0819 18.4149 79.9445 17.4309 79.7989 16.4523L82.7662 16.0108ZM83.5527 22.0379C83.6655 23.0414 83.7697 24.0489 83.8651 25.0595L80.8784 25.3416C80.7846 24.3486 80.6823 23.3588 80.5715 22.3729L83.5527 22.0379ZM84.1242 28.0906C84.2013 29.0993 84.2697 30.1105 84.329 31.1235L81.3341 31.2988C81.2758 30.3037 81.2087 29.3104 81.1329 28.3194L84.1242 28.0906ZM84.4793 34.1613C84.5202 35.1735 84.5519 36.1869 84.5743 37.2007L81.575 37.2669C81.5531 36.2715 81.5219 35.2765 81.4817 34.2824L84.4793 34.1613ZM84.6131 40.243C84.6166 41.257 84.6105 42.271 84.5946 43.2841L81.5949 43.237C81.6105 42.2432 81.6165 41.2484 81.6132 40.2531L84.6131 40.243ZM84.5171 46.3281C84.4812 47.3424 84.4354 48.3551 84.3793 49.3657L81.3839 49.1994C81.4389 48.2092 81.4838 47.2166 81.5189 46.2222L84.5171 46.3281ZM84.1786 52.4082C84.1011 53.4206 84.013 54.4302 83.9141 55.4361L80.9284 55.1425C81.0252 54.1585 81.1114 53.1705 81.1873 52.1793L84.1786 52.4082ZM83.5809 58.4728C83.4584 59.4828 83.3246 60.4885 83.1793 61.489L80.2105 61.0578C80.3523 60.081 80.483 59.0988 80.6027 58.1117L83.5809 58.4728ZM82.7027 64.5086C82.531 65.5144 82.3471 66.5142 82.1508 67.5072L79.2078 66.9255C79.3989 65.9586 79.578 64.9845 79.7454 64.0038L82.7027 64.5086ZM81.5171 70.4981C81.2909 71.4969 81.0514 72.4879 80.7986 73.4703L77.8933 72.7225C78.1387 71.7691 78.3713 70.8064 78.5912 69.8354L81.5171 70.4981ZM79.9915 76.4175C79.7043 77.4053 79.4026 78.3833 79.0863 79.3506L76.2349 78.4179C76.5407 77.4831 76.8326 76.5368 77.1108 75.5799L79.9915 76.4175ZM78.087 82.2347C77.7311 83.2056 77.3593 84.1643 76.9712 85.1098L74.1959 83.9708C74.569 83.0615 74.9271 82.1384 75.2702 81.2022L78.087 82.2347ZM75.7494 87.9247C75.3188 88.8635 74.8708 89.7874 74.4052 90.6955L71.7357 89.3266C72.1808 88.4586 72.6097 87.5741 73.0226 86.6739L75.7494 87.9247ZM72.933 93.4089C72.4196 94.3036 71.8873 95.1806 71.3356 96.0387L68.8121 94.4165C69.3357 93.602 69.8419 92.7681 70.331 91.9158L72.933 93.4089ZM69.5873 98.6039C68.9798 99.4445 68.3515 100.264 67.7019 101.061L65.3764 99.1658C65.9883 98.415 66.5813 97.6416 67.1557 96.8467L69.5873 98.6039ZM65.6699 103.404C64.9641 104.169 64.2359 104.908 63.4848 105.622L61.4185 103.447C62.121 102.78 62.8033 102.087 63.4658 101.369L65.6699 103.404ZM61.1572 107.687C60.3565 108.35 59.5326 108.985 58.685 109.59L56.9413 107.149C57.7301 106.586 58.4977 105.994 59.2445 105.376L61.1572 107.687ZM56.0852 111.309C55.1999 111.848 54.2914 112.358 53.3594 112.836L51.9901 110.167C52.8562 109.723 53.7005 109.249 54.5233 108.747L56.0852 111.309ZM50.5334 114.157C49.5867 114.559 48.618 114.929 47.6271 115.267L46.6576 112.428C47.5808 112.113 48.4824 111.768 49.3629 111.395L50.5334 114.157ZM44.6231 116.176C43.6409 116.436 42.6388 116.667 41.6166 116.866L41.0415 113.922C41.9996 113.735 42.9372 113.519 43.8548 113.276L44.6231 116.176ZM38.5408 117.366C37.5328 117.497 36.5067 117.6 35.4622 117.674L35.2511 114.681C36.2375 114.612 37.2048 114.515 38.1532 114.391L38.5408 117.366ZM32.3751 117.805C31.3589 117.821 30.3264 117.81 29.2775 117.772L29.3862 114.774C30.3847 114.81 31.3657 114.82 32.3294 114.805L32.3751 117.805ZM26.2146 117.587C25.2048 117.503 24.1806 117.394 23.1417 117.261L23.5233 114.285C24.5195 114.413 25.5 114.517 26.4649 114.598L26.2146 117.587ZM20.1144 116.809C19.1221 116.641 18.1171 116.451 17.0991 116.24L17.7105 113.302C18.6927 113.507 19.661 113.69 20.6156 113.852L20.1144 116.809ZM14.0996 115.56C13.1326 115.324 12.1544 115.068 11.1649 114.792L11.9693 111.902C12.929 112.169 13.8766 112.417 14.8122 112.646L14.0996 115.56ZM8.17347 113.911C7.23675 113.619 6.29023 113.311 5.33385 112.985L6.30112 110.145C7.23272 110.463 8.1538 110.763 9.06445 111.046L8.17347 113.911ZM2.43497 111.955C1.94682 111.775 1.45619 111.59 0.963045 111.401L2.0376 108.6C2.51929 108.785 2.99831 108.965 3.47469 109.141L2.43497 111.955Z" fill="#78857B"/>
</svg>
