<svg width="60" height="41" viewBox="0 0 60 41" fill="none" xmlns="http://www.w3.org/2000/svg">
<path d="M3.87771 -0.000248276L0.269762 16.9403L16.7447 11.5946L3.87771 -0.000248276ZM3.91136 4.81494C4.26089 5.80526 4.61419 6.77103 4.97108 7.71272L7.77637 6.64955C7.42785 5.72992 7.08243 4.78574 6.74032 3.81646L3.91136 4.81494ZM6.08666 10.5503C6.48039 11.5156 6.87813 12.4533 7.27964 13.3641L10.0247 12.154C9.63482 11.2694 9.24796 10.3574 8.86444 9.41723L6.08666 10.5503ZM8.57066 16.1742C9.02553 17.1238 9.48483 18.0411 9.94824 18.9269L12.6064 17.5362C12.1599 16.6827 11.7164 15.7971 11.2763 14.8782L8.57066 16.1742ZM11.4264 21.6228C11.9534 22.5391 12.4852 23.4173 13.0215 24.2586L15.5512 22.6461C15.0404 21.8447 14.5322 21.0055 14.027 20.1272L11.4264 21.6228ZM14.753 26.8271C15.377 27.701 16.0064 28.5282 16.6405 29.3103L18.9708 27.421C18.3768 26.6884 17.7844 25.91 17.1945 25.0838L14.753 26.8271ZM18.6967 31.6734C19.4423 32.4694 20.1936 33.2073 20.9495 33.8894L22.9593 31.6621C22.2684 31.0386 21.5769 30.3598 20.8863 29.6225L18.6967 31.6734ZM23.4081 35.9031C24.2934 36.5567 25.1832 37.1387 26.0759 37.6528L27.5732 35.0532C26.782 34.5975 25.987 34.078 25.1899 33.4895L23.4081 35.9031ZM28.953 39.076C29.9784 39.5023 31.003 39.8439 32.0238 40.1072L32.773 37.2023C31.8904 36.9746 31.0002 36.6781 30.1046 36.3058L28.953 39.076ZM35.2134 40.6835C36.3067 40.7983 37.3884 40.8284 38.4543 40.7832L38.3274 37.7859C37.4038 37.825 36.4694 37.7989 35.5267 37.6999L35.2134 40.6835ZM41.6665 40.4196C42.729 40.2245 43.7694 39.9599 44.7837 39.6364L43.8722 36.7782C42.9723 37.0652 42.0554 37.2981 41.1249 37.4688L41.6665 40.4196ZM47.7665 38.4902C48.7402 38.0519 49.684 37.5636 50.5941 37.0359L49.0893 34.4406C48.2627 34.9198 47.4101 35.3607 46.5351 35.7546L47.7665 38.4902ZM53.2549 35.3205C54.1246 34.7016 54.9553 34.0509 55.743 33.3799L53.7976 31.0962C53.0736 31.7129 52.3114 32.3098 51.5153 32.8764L53.2549 35.3205ZM58.0526 31.2368C58.428 30.8575 58.7898 30.4754 59.1376 30.092L56.9155 28.0765C56.597 28.4276 56.2651 28.7782 55.9203 29.1265L58.0526 31.2368Z" fill="#78857B"/>
</svg>
