<svg width="42" height="102" viewBox="0 0 42 102" fill="none" xmlns="http://www.w3.org/2000/svg">
<path d="M30.2537 0.910026L14.2155 7.45044L27.8988 18.0697L30.2537 0.910026ZM26.2424 3.67864C25.6327 4.48991 25.0357 5.29512 24.4511 6.09431L26.8724 7.86552C27.4493 7.0769 28.0386 6.28204 28.6407 5.4809L26.2424 3.67864ZM22.6381 8.60927C22.041 9.45021 21.4578 10.2843 20.8885 11.1117L23.3598 12.8123C23.9207 11.9974 24.4954 11.1753 25.0842 10.3462L22.6381 8.60927ZM19.1838 13.6303C18.6043 14.5012 18.0404 15.3644 17.4918 16.22L20.0172 17.8393C20.5565 16.9983 21.1111 16.1493 21.6814 15.2922L19.1838 13.6303ZM15.8917 18.7639C15.3365 19.6644 14.7985 20.5562 14.2776 21.4394L16.8616 22.9636C17.3724 22.0976 17.9002 21.2226 18.4453 20.3385L15.8917 18.7639ZM12.7652 24.0638C12.2488 24.9816 11.7512 25.8899 11.272 26.7887L13.9192 28.2001C14.3876 27.3217 14.8743 26.4333 15.3798 25.5347L12.7652 24.0638ZM9.87266 29.4893C9.39888 30.4315 8.94577 31.3629 8.51289 32.2836L11.2278 33.56C11.6492 32.6638 12.0907 31.7562 12.5529 30.8371L9.87266 29.4893ZM7.25732 35.0534C6.83304 36.026 6.43188 36.9864 6.05331 37.9346L8.83946 39.047C9.20607 38.1287 9.59507 37.1974 10.0071 36.2529L7.25732 35.0534ZM4.96773 40.7902C4.6077 41.7882 4.27337 42.7723 3.96407 43.7425L6.82235 44.6537C7.11993 43.7202 7.44212 42.7718 7.78972 41.8082L4.96773 40.7902ZM3.08292 46.7125C2.80616 47.722 2.55735 48.7159 2.33565 49.6944L5.26148 50.3573C5.47304 49.4237 5.71093 48.4732 5.97616 47.5057L3.08292 46.7125ZM1.71747 52.7747C1.53494 53.8224 1.38462 54.8514 1.26539 55.862L4.24472 56.2135C4.35734 55.259 4.49963 54.2844 4.67295 53.2896L1.71747 52.7747ZM0.992623 58.9626C0.93174 60.0272 0.90675 61.0699 0.916182 62.091L3.91605 62.0633C3.90725 61.11 3.93055 60.1337 3.98773 59.1339L0.992623 58.9626ZM1.05883 65.2459C1.14697 66.3168 1.27466 67.3616 1.43989 68.3809L4.40123 67.9008C4.24876 66.9603 4.13051 65.9936 4.04872 64.9999L1.05883 65.2459ZM2.07504 71.4784C2.33507 72.5203 2.63616 73.5323 2.97563 74.5147L5.81114 73.535C5.50055 72.6361 5.22454 71.7087 4.98577 70.752L2.07504 71.4784ZM4.14605 77.4622C4.58629 78.4385 5.06612 79.3816 5.58213 80.292L8.19209 78.8128C7.72094 77.9815 7.28287 77.1205 6.88086 76.229L4.14605 77.4622ZM7.27104 82.9778C7.87814 83.8523 8.52 84.6921 9.19269 85.498L11.4958 83.5756C10.8786 82.8362 10.2907 82.0669 9.73542 81.267L7.27104 82.9778ZM11.3223 87.8382C12.0662 88.5894 12.8378 89.3064 13.6331 89.99L15.5887 87.715C14.8523 87.082 14.1396 86.4197 13.4541 85.7273L11.3223 87.8382ZM16.0986 91.9514C16.9452 92.5748 17.8118 93.1654 18.6944 93.7242L20.2992 91.1895C19.4739 90.667 18.6654 90.1159 17.8776 89.5357L16.0986 91.9514ZM21.3988 95.3132C22.3192 95.8145 23.252 96.2846 24.193 96.7244L25.4633 94.0066C24.576 93.592 23.6983 93.1496 22.8338 92.6787L21.3988 95.3132ZM27.0614 97.9641C28.0346 98.3519 29.0124 98.7095 29.9906 99.0379L30.9453 96.1938C30.0181 95.8826 29.0923 95.544 28.1718 95.1772L27.0614 97.9641ZM32.9745 99.9512C33.9895 100.232 35.0005 100.483 36.0026 100.705L36.6507 97.776C35.6991 97.5655 34.7392 97.3272 33.7758 97.0602L32.9745 99.9512ZM39.067 101.299C39.5815 101.384 40.0923 101.462 40.5987 101.532L41.0106 98.5606C40.5309 98.4941 40.0468 98.4204 39.5589 98.3393L39.067 101.299Z" fill="#78857B"/>
</svg>
