<svg width="71" height="181" viewBox="0 0 71 181" fill="none" xmlns="http://www.w3.org/2000/svg">
<path d="M19.4553 180.114L35.5023 173.595L21.8335 162.957L19.4553 180.114ZM23.4765 177.364C24.0969 176.552 24.7103 175.745 25.3167 174.94L22.9211 173.134C22.3189 173.933 21.7097 174.736 21.0935 175.541L23.4765 177.364ZM27.1153 172.537C27.708 171.739 28.2937 170.944 28.8726 170.153L26.4516 168.382C25.877 169.167 25.2955 169.956 24.7071 170.748L27.1153 172.537ZM30.6672 167.681C31.271 166.843 31.867 166.008 32.4554 165.177L30.007 163.444C29.4233 164.268 28.8319 165.096 28.2327 165.928L30.6672 167.681ZM34.1974 162.696C34.7705 161.873 35.3359 161.053 35.8938 160.237L33.4174 158.544C32.8642 159.353 32.3035 160.166 31.7351 160.982L34.1974 162.696ZM37.5615 157.776C38.1424 156.911 38.7148 156.05 39.2787 155.193L36.7727 153.544C36.2139 154.393 35.6466 155.246 35.0708 156.104L37.5615 157.776ZM40.9448 152.635C41.4917 151.787 42.0302 150.943 42.5603 150.103L40.0234 148.502C39.4984 149.333 38.9651 150.169 38.4234 151.01L40.9448 152.635ZM44.1256 147.596C44.6731 146.71 45.2112 145.828 45.7399 144.951L43.1708 143.402C42.6476 144.27 42.1151 145.142 41.5732 146.02L44.1256 147.596ZM47.3062 142.321C47.819 141.449 48.3224 140.582 48.8166 139.719L46.2137 138.228C45.7251 139.08 45.2273 139.938 44.7202 140.8L47.3062 142.321ZM50.2715 137.146C50.7814 136.232 51.2807 135.324 51.7697 134.421L49.1316 132.993C48.6487 133.884 48.1554 134.782 47.6517 135.685L50.2715 137.146ZM53.2072 131.725C53.6761 130.832 54.1347 129.944 54.5831 129.061L51.9085 127.702C51.4662 128.573 51.0137 129.449 50.5509 130.331L53.2072 131.725ZM55.9271 126.37C56.3862 125.435 56.8338 124.505 57.2698 123.582L54.5572 122.301C54.1276 123.21 53.6866 124.126 53.234 125.049L55.9271 126.37ZM58.544 120.831C58.9574 119.92 59.3595 119.015 59.7504 118.116L56.9993 116.919C56.6147 117.804 56.219 118.694 55.8121 119.591L58.544 120.831ZM60.962 115.263C61.3564 114.312 61.7381 113.367 62.1073 112.43L59.3159 111.331C58.9534 112.251 58.5783 113.179 58.1907 114.114L60.962 115.263ZM63.1776 109.638C63.5396 108.666 63.888 107.703 64.223 106.747L61.3917 105.755C61.0634 106.692 60.7217 107.637 60.3665 108.59L63.1776 109.638ZM65.2072 103.842C65.5214 102.881 65.8219 101.929 66.1088 100.984L63.2382 100.112C62.9576 101.036 62.6636 101.969 62.3559 102.909L65.2072 103.842ZM66.97 98.0251C67.2473 97.0294 67.5093 96.0424 67.7562 95.0641L64.8475 94.3299C64.6066 95.2842 64.3508 96.2477 64.08 97.2204L66.97 98.0251ZM68.4522 92.1552C68.6838 91.13 68.8987 90.1146 69.097 89.1089L66.1537 88.5285C65.9608 89.5067 65.7516 90.4952 65.526 91.494L68.4522 92.1552ZM69.6442 86.1129C69.8143 85.0998 69.9673 84.0968 70.1036 83.104L67.1314 82.6961C66.9993 83.6588 66.8508 84.6322 66.6856 85.6162L69.6442 86.1129ZM70.4752 80.0355C70.5812 79.0236 70.6694 78.0226 70.7403 77.0324L67.7479 76.8183C67.6794 77.7752 67.5941 78.7434 67.4915 79.723L70.4752 80.0355ZM70.9073 73.9234C70.9439 72.8954 70.9614 71.8795 70.9602 70.8757L67.9602 70.8794C67.9614 71.8459 67.9445 72.8249 67.9092 73.8166L70.9073 73.9234ZM70.8965 67.7899C70.8546 66.7546 70.7924 65.7327 70.7104 64.7242L67.7203 64.9673C67.799 65.9348 67.8587 66.916 67.8989 67.911L70.8965 67.7899ZM70.3963 61.6637C70.2679 60.6318 70.1183 59.6145 69.9481 58.6118L66.9904 59.1139C67.1531 60.0725 67.2963 61.0458 67.4192 62.034L70.3963 61.6637ZM69.3638 55.59C69.1428 54.5733 68.9 53.5724 68.6362 52.5871L65.7383 53.3629C65.9897 54.3021 66.2213 55.2568 66.4323 56.2273L69.3638 55.59ZM67.7666 49.6279C67.4496 48.6387 67.1108 47.6663 66.7511 46.7106L63.9433 47.7671C64.2855 48.6763 64.6079 49.6018 64.9098 50.5436L67.7666 49.6279ZM65.5898 43.8451C65.1767 42.8952 64.7424 41.963 64.2879 41.048L61.6011 42.3826C62.0331 43.2523 62.446 44.1386 62.8388 45.0418L65.5898 43.8451ZM62.8398 38.3101C62.3339 37.4099 61.808 36.5278 61.2632 35.6635L58.7254 37.2633C59.2435 38.0853 59.7436 38.924 60.2245 39.7798L62.8398 38.3101ZM59.5447 33.084C58.9513 32.2398 58.3393 31.414 57.7099 30.6064L55.3436 32.4504C55.9431 33.2198 56.5258 34.006 57.0905 34.8093L59.5447 33.084ZM55.7506 28.2143C55.0782 27.4326 54.3891 26.6693 53.6845 25.9241L51.5047 27.9852C52.1775 28.6968 52.835 29.4252 53.4762 30.1706L55.7506 28.2143ZM51.5149 23.7325C50.774 23.0174 50.0185 22.3204 49.2496 21.6414L47.2637 23.89C48 24.5403 48.723 25.2072 49.4315 25.8911L51.5149 23.7325ZM46.8998 19.6542C46.1007 19.007 45.2892 18.3776 44.4666 17.7657L42.6761 20.1728C43.4663 20.7606 44.2452 21.3647 45.0116 21.9855L46.8998 19.6542ZM41.9638 15.9804C41.1167 15.401 40.2596 14.8389 39.3937 14.2939L37.7957 16.8329C38.63 17.358 39.4551 17.8991 40.2701 18.4565L41.9638 15.9804ZM36.7641 12.706C35.8777 12.1925 34.9836 11.696 34.083 11.216L32.6721 13.8636C33.5421 14.3272 34.4053 14.8066 35.2605 15.3019L36.7641 12.706ZM31.3487 9.81878C30.4295 9.36858 29.5049 8.93489 28.5761 8.51742L27.3462 11.2537C28.2455 11.6579 29.1402 12.0776 30.0292 12.513L31.3487 9.81878ZM25.7584 7.30507C24.8107 6.91509 23.8599 6.5414 22.9073 6.18369L21.8527 8.99221C22.7766 9.33914 23.6984 9.70144 24.6168 10.0794L25.7584 7.30507ZM20.0283 5.15235C19.0558 4.82048 18.0827 4.50485 17.1104 4.20516L16.2267 7.07206C17.1708 7.36308 18.1155 7.66949 19.0594 7.99159L20.0283 5.15235ZM14.1786 3.34841C13.1875 3.07443 12.1985 2.81675 11.2131 2.57504L10.4984 5.48866C11.4557 5.7235 12.4165 5.97383 13.3793 6.23997L14.1786 3.34841ZM8.2272 1.88844C7.22594 1.67348 6.22991 1.47493 5.24064 1.29243L4.69639 4.24265C5.6572 4.4199 6.62474 4.61277 7.59747 4.82161L8.2272 1.88844ZM2.20729 0.779265C1.70582 0.702119 1.20656 0.629124 0.709688 0.560247L0.297741 3.53183C0.779829 3.59866 1.26436 3.66949 1.7511 3.74438L2.20729 0.779265Z" fill="#78857B"/>
</svg>
