<svg width="27" height="63" viewBox="0 0 27 63" fill="none" xmlns="http://www.w3.org/2000/svg">
<path d="M19.348 63.008L3.32208 56.4375L17.0252 45.8439L19.348 63.008ZM15.3899 60.2656C14.769 59.4186 14.1705 58.5823 13.5939 57.7566L16.0535 56.039C16.6166 56.8453 17.2017 57.6629 17.8094 58.4919L15.3899 60.2656ZM11.8791 55.2355C11.3039 54.3662 10.7536 53.509 10.2277 52.6639L12.7748 51.0788C13.2855 51.8995 13.8207 52.7332 14.381 53.58L11.8791 55.2355ZM8.63455 50.0134C8.10668 49.1023 7.60799 48.2058 7.13765 47.3237L9.78486 45.9122C10.238 46.7621 10.7195 47.6278 11.2303 48.5093L8.63455 50.0134ZM5.74434 44.583C5.2846 43.6311 4.85905 42.6968 4.46653 41.7796L7.22457 40.5993C7.59848 41.473 8.00507 42.3658 8.44575 43.2782L5.74434 44.583ZM3.32128 38.9014C2.95127 37.8934 2.62285 36.9072 2.33437 35.9426L5.20861 35.083C5.47882 35.9866 5.78774 36.9147 6.13755 37.8677L3.32128 38.9014ZM1.54189 32.912C1.30478 31.8474 1.11886 30.811 0.981623 29.802L3.95425 29.3977C4.0797 30.3199 4.25051 31.2737 4.47014 32.2598L1.54189 32.912ZM0.704507 26.6362C0.663776 25.5365 0.684709 24.4734 0.763325 23.4463L3.75457 23.6752C3.6849 24.5856 3.66578 25.5351 3.70245 26.5252L0.704507 26.6362ZM1.20984 20.2676C1.43588 19.1804 1.73133 18.1416 2.08933 17.1501L4.91102 18.1689C4.60144 19.0263 4.34446 19.9287 4.14703 20.8783L1.20984 20.2676ZM3.41155 14.1908C3.9331 13.223 4.51803 12.3127 5.15626 11.4577L7.56029 13.2523C7.00733 13.993 6.50214 14.7796 6.05243 15.614L3.41155 14.1908ZM7.26751 9.0097C8.02758 8.24208 8.83273 7.53196 9.67176 6.87657L11.5185 9.24078C10.7741 9.82223 10.0649 10.4482 9.39929 11.1205L7.26751 9.0097ZM12.3 5.05909C13.2109 4.50199 14.1464 3.9978 15.0952 3.54362L16.3905 6.2496C15.5287 6.66211 14.6838 7.11779 13.8653 7.6184L12.3 5.05909ZM18.0121 2.31299C19.0136 1.94365 20.0194 1.6243 21.0176 1.35199L21.8071 4.24625C20.8895 4.49655 19.9668 4.78961 19.0501 5.12769L18.0121 2.31299ZM24.0898 0.652629C24.6146 0.556425 25.1343 0.47299 25.6469 0.401922L26.0589 3.3735C25.5894 3.43859 25.1127 3.51511 24.6306 3.60347L24.0898 0.652629Z" fill="#78857B"/>
</svg>
