<svg width="56" height="56" viewBox="0 0 56 56" fill="none" xmlns="http://www.w3.org/2000/svg">
<path d="M25.7666 2.12452C27.0191 0.934108 28.9848 0.934108 30.2374 2.12452C31.2124 3.05124 32.6582 3.28022 33.8719 2.70018C35.431 1.95509 37.3005 2.56253 38.1239 4.08174C38.7649 5.26441 40.0691 5.92896 41.4027 5.75237C43.1157 5.52552 44.706 6.68094 45.0197 8.38024C45.2638 9.7031 46.2989 10.7382 47.6217 10.9823C49.321 11.2959 50.4764 12.8862 50.2496 14.5993C50.073 15.9328 50.7375 17.2371 51.9202 17.878C53.4394 18.7014 54.0469 20.5709 53.3018 22.13C52.7217 23.3438 52.9507 24.7895 53.8774 25.7646C55.0678 27.0171 55.0678 28.9829 53.8774 30.2354C52.9507 31.2105 52.7217 32.6562 53.3018 33.87C54.0469 35.4291 53.4394 37.2986 51.9202 38.122C50.7375 38.7629 50.073 40.0672 50.2496 41.4007C50.4764 43.1138 49.321 44.7041 47.6217 45.0177C46.2989 45.2618 45.2638 46.2969 45.0197 47.6198C44.706 49.3191 43.1157 50.4745 41.4027 50.2476C40.0691 50.071 38.7649 50.7356 38.1239 51.9183C37.3005 53.4375 35.431 54.0449 33.8719 53.2998C32.6582 52.7198 31.2124 52.9488 30.2374 53.8755C28.9848 55.0659 27.0191 55.0659 25.7666 53.8755C24.7915 52.9488 23.3457 52.7198 22.132 53.2998C20.5729 54.0449 18.7034 53.4375 17.88 51.9183C17.239 50.7356 15.9348 50.071 14.6012 50.2476C12.8882 50.4745 11.2979 49.3191 10.9843 47.6198C10.7401 46.2969 9.70505 45.2618 8.38219 45.0177C6.6829 44.7041 5.52748 43.1138 5.75432 41.4007C5.93091 40.0672 5.26636 38.7629 4.08369 38.122C2.56448 37.2986 1.95704 35.4291 2.70214 33.87C3.28218 32.6562 3.05319 31.2105 2.12648 30.2354C0.936062 28.9829 0.936062 27.0171 2.12648 25.7646C3.05319 24.7895 3.28218 23.3438 2.70214 22.13C1.95704 20.5709 2.56448 18.7014 4.08369 17.878C5.26636 17.2371 5.93091 15.9328 5.75432 14.5993C5.52748 12.8862 6.6829 11.2959 8.38219 10.9823C9.70505 10.7382 10.7401 9.7031 10.9843 8.38024C11.2979 6.68094 12.8882 5.52552 14.6012 5.75237C15.9348 5.92896 17.239 5.26441 17.88 4.08174C18.7034 2.56253 20.5729 1.95509 22.132 2.70018C23.3457 3.28023 24.7915 3.05124 25.7666 2.12452Z" fill="#ECF5F5" stroke="#232521" stroke-width="2" stroke-linecap="round" stroke-linejoin="round"/>
<path d="M28.002 17.1992V20.1992" stroke="#232521" stroke-width="2" stroke-linecap="round" stroke-linejoin="round"/>
<path d="M28.002 35.8008V38.8008" stroke="#232521" stroke-width="2" stroke-linecap="round" stroke-linejoin="round"/>
<path d="M33.002 21H25.502C24.5737 21 23.6835 21.3687 23.0271 22.0251C22.3707 22.6815 22.002 23.5717 22.002 24.5C22.002 25.4283 22.3707 26.3185 23.0271 26.9749C23.6835 27.6313 24.5737 28 25.502 28H30.502C31.4302 28 32.3205 28.3687 32.9768 29.0251C33.6332 29.6815 34.002 30.5717 34.002 31.5C34.002 32.4283 33.6332 33.3185 32.9768 33.9749C32.3205 34.6313 31.4302 35 30.502 35H22.002" stroke="#232521" stroke-width="2" stroke-linecap="round" stroke-linejoin="round"/>
</svg>
