<svg width="60" height="60" viewBox="0 0 60 60" fill="none" xmlns="http://www.w3.org/2000/svg">
<g id="phone-call">
<path id="Vector" d="M55.0015 42.3V49.8C55.0044 50.4963 54.8617 51.1854 54.5828 51.8234C54.3039 52.4613 53.8948 53.034 53.3817 53.5047C52.8687 53.9753 52.263 54.3337 51.6034 54.5568C50.9439 54.7798 50.245 54.8627 49.5515 54.8C41.8586 53.9641 34.469 51.3354 27.9765 47.125C21.9361 43.2867 16.8149 38.1654 12.9765 32.125C8.75149 25.603 6.12215 18.1775 5.30154 10.45C5.23907 9.75867 5.32123 9.0619 5.54279 8.40406C5.76436 7.74622 6.12047 7.14172 6.58846 6.62905C7.05644 6.11638 7.62605 5.70677 8.26102 5.4263C8.89598 5.14583 9.58239 5.00065 10.2765 5H17.7765C18.9898 4.98806 20.166 5.41769 21.0859 6.20883C22.0059 6.99997 22.6067 8.09862 22.7765 9.3C23.0931 11.7002 23.6802 14.0568 24.5265 16.325C24.8629 17.2198 24.9357 18.1923 24.7363 19.1272C24.5369 20.0621 24.0737 20.9203 23.4015 21.6L20.2265 24.775C23.7854 31.0339 28.9677 36.2161 35.2265 39.775L38.4015 36.6C39.0813 35.9278 39.9394 35.4646 40.8743 35.2652C41.8093 35.0658 42.7817 35.1386 43.6765 35.475C45.9447 36.3214 48.3014 36.9084 50.7015 37.225C51.916 37.3963 53.025 38.008 53.8179 38.9437C54.6107 39.8795 55.032 41.0739 55.0015 42.3Z" fill="#ECF5F5" stroke="#232521" stroke-width="2" stroke-linecap="round" stroke-linejoin="round"/>
<path id="Vector_2" d="M37.627 12.5C40.0688 12.9764 42.3129 14.1706 44.0721 15.9298C45.8313 17.689 47.0255 19.9332 47.502 22.375M37.627 2.5C42.7001 3.06359 47.4309 5.33544 51.0426 8.94252C54.6542 12.5496 56.932 17.2775 57.502 22.35" stroke="#232521" stroke-width="2" stroke-linecap="round" stroke-linejoin="round"/>
</g>
</svg>
