<svg width="60" height="60" viewBox="0 0 60 60" fill="none" xmlns="http://www.w3.org/2000/svg">
<g id="truck">
<path id="Vector" d="M40.002 7.5H2.50195V36H40.002V7.5Z" fill="#ECF5F5" stroke="#232521" stroke-width="2" stroke-linecap="round" stroke-linejoin="round"/>
<path id="Vector_2" d="M40.002 16H50.002L57.502 23.5V36H40.002V16Z" fill="#ECF5F5" stroke="#232521" stroke-width="2" stroke-linecap="round" stroke-linejoin="round"/>
<path id="Vector_3" d="M12.752 50.5C15.6514 50.5 18.002 48.1495 18.002 45.25C18.002 42.3505 15.6514 40 12.752 40C9.85246 40 7.50195 42.3505 7.50195 45.25C7.50195 48.1495 9.85246 50.5 12.752 50.5Z" fill="#ECF5F5" stroke="#232521" stroke-width="2" stroke-linecap="round" stroke-linejoin="round"/>
<path id="Vector_4" d="M45.252 50.5C48.1514 50.5 50.502 48.1495 50.502 45.25C50.502 42.3505 48.1514 40 45.252 40C42.3525 40 40.002 42.3505 40.002 45.25C40.002 48.1495 42.3525 50.5 45.252 50.5Z" fill="#ECF5F5" stroke="#232521" stroke-width="2" stroke-linecap="round" stroke-linejoin="round"/>
</g>
</svg>
