<svg width="51" height="24" viewBox="0 0 51 24" fill="none" xmlns="http://www.w3.org/2000/svg">
<g id="Google_Pay_Logo 1" clip-path="url(#clip0_4_2317)">
<path id="Vector" d="M24.2814 12.4092V18.2675H22.3916V3.7793H27.305C28.5018 3.7793 29.6357 4.22024 30.5176 5.03914C31.3995 5.79505 31.8404 6.9289 31.8404 8.12575C31.8404 9.3226 31.3995 10.3935 30.5176 11.2124C29.6357 12.0313 28.5648 12.4722 27.305 12.4722L24.2814 12.4092ZM24.2814 5.54308V10.5824H27.431C28.1239 10.5824 28.8168 10.3305 29.2577 9.82654C30.2656 8.88166 30.2656 7.30686 29.3207 6.36197L29.2577 6.29898C28.7538 5.79505 28.1239 5.48008 27.431 5.54308H24.2814Z" fill="white"/>
<path id="Vector_2" d="M36.1868 8.06348C37.5726 8.06348 38.6435 8.44143 39.4624 9.19734C40.2813 9.95324 40.6592 10.9611 40.6592 12.221V18.2682H38.8955V16.8824H38.8325C38.0766 18.0162 37.0057 18.5832 35.7458 18.5832C34.675 18.5832 33.7301 18.2682 32.9742 17.6383C32.2813 17.0084 31.8403 16.1265 31.8403 15.1816C31.8403 14.1737 32.2183 13.3548 32.9742 12.7249C33.7301 12.095 34.801 11.843 36.0608 11.843C37.1947 11.843 38.0766 12.032 38.7695 12.4729V12.032C38.7695 11.4021 38.5175 10.7721 38.0136 10.3942C37.5096 9.95324 36.8797 9.70127 36.1868 9.70127C35.1159 9.70127 34.297 10.1422 33.7301 11.0241L32.0923 10.0162C33.1002 8.6934 34.423 8.06348 36.1868 8.06348ZM33.7931 15.2446C33.7931 15.7485 34.0451 16.1895 34.423 16.4414C34.864 16.7564 35.3679 16.9454 35.8718 16.9454C36.6277 16.9454 37.3836 16.6304 37.9506 16.0635C38.5805 15.4965 38.8955 14.8036 38.8955 14.0477C38.3285 13.6068 37.5096 13.3548 36.4388 13.3548C35.6829 13.3548 35.0529 13.5438 34.549 13.9217C34.0451 14.2367 33.7931 14.6776 33.7931 15.2446Z" fill="white"/>
<path id="Vector_3" d="M50.8639 8.37793L44.6277 22.6771H42.7379L45.0686 17.7008L40.9741 8.44092H42.9899L45.9505 15.559H46.0135L48.9111 8.44092H50.8639V8.37793Z" fill="white"/>
<path id="Vector_4" d="M16.7852 11.15C16.7852 10.5831 16.7222 10.0161 16.6592 9.44922H8.78516V12.6618H13.2576C13.0686 13.6697 12.5017 14.6146 11.6198 15.1815V17.2602H14.3285C15.9033 15.8114 16.7852 13.6697 16.7852 11.15Z" fill="#4285F4"/>
<path id="Vector_5" d="M8.78512 19.2753C11.0528 19.2753 12.9426 18.5194 14.3284 17.2596L11.6198 15.1808C10.8639 15.6848 9.91898 15.9997 8.78512 15.9997C6.64339 15.9997 4.75363 14.5509 4.1237 12.5352H1.35205V14.6769C2.80087 17.5115 5.63552 19.2753 8.78512 19.2753Z" fill="#34A853"/>
<path id="Vector_6" d="M4.12388 12.535C3.74593 11.5271 3.74593 10.3933 4.12388 9.3224V7.18066H1.35223C0.155377 9.51137 0.155377 12.283 1.35223 14.6767L4.12388 12.535Z" fill="#FBBC04"/>
<path id="Vector_7" d="M8.78512 5.92156C9.98197 5.92156 11.1158 6.3625 11.9977 7.1814L14.3914 4.7877C12.8796 3.40187 10.8639 2.58298 8.84811 2.64597C5.6985 2.64597 2.80087 4.40975 1.41504 7.24439L4.18669 9.38613C4.75362 7.37038 6.64339 5.92156 8.78512 5.92156Z" fill="#EA4335"/>
</g>
<defs>
<clipPath id="clip0_4_2317">
<rect width="50.3937" height="24" fill="white" transform="translate(0.470215)"/>
</clipPath>
</defs>
</svg>
