<svg width="90" height="22" viewBox="0 0 90 22" fill="none" xmlns="http://www.w3.org/2000/svg">
<g id="Group 156">
<path id="Vector" d="M33.6677 4.93457H28.6939C28.3535 4.93457 28.0641 5.18184 28.011 5.51784L25.9994 18.272C25.9594 18.5237 26.1543 18.7506 26.4095 18.7506H28.7841C29.1245 18.7506 29.4139 18.5033 29.467 18.1666L30.0095 14.7266C30.0619 14.3898 30.3521 14.1426 30.6917 14.1426H32.2663C35.5426 14.1426 37.4335 12.5571 37.9274 9.4153C38.1499 8.04075 37.9368 6.96075 37.2932 6.20439C36.5863 5.37384 35.3325 4.93457 33.6677 4.93457ZM34.2415 9.59275C33.9695 11.3775 32.6059 11.3775 31.2874 11.3775H30.5368L31.0634 8.04439C31.0946 7.84293 31.2692 7.69457 31.4728 7.69457H31.8168C32.715 7.69457 33.5623 7.69457 34.0001 8.20657C34.2612 8.51203 34.3412 8.96584 34.2415 9.59275Z" fill="#253B80"/>
<path id="Vector_2" d="M48.535 9.53552H46.1531C45.9502 9.53552 45.775 9.68389 45.7437 9.88534L45.6382 10.5515L45.4717 10.3101C44.9561 9.56171 43.8062 9.31152 42.6586 9.31152C40.0266 9.31152 37.7786 11.305 37.3408 14.1013C37.1131 15.4963 37.4368 16.8301 38.2281 17.7603C38.9539 18.6155 39.9924 18.9719 41.2281 18.9719C43.3488 18.9719 44.5248 17.6083 44.5248 17.6083L44.4186 18.2701C44.3786 18.5232 44.5735 18.7501 44.8273 18.7501H46.9728C47.3139 18.7501 47.6019 18.5028 47.6557 18.1661L48.943 10.0141C48.9837 9.76316 48.7895 9.53552 48.535 9.53552ZM45.215 14.1712C44.9851 15.5319 43.9051 16.4453 42.5277 16.4453C41.8361 16.4453 41.2833 16.2235 40.9284 15.8032C40.5764 15.3857 40.4426 14.7915 40.5546 14.1297C40.7691 12.7806 41.8673 11.8373 43.2237 11.8373C43.9001 11.8373 44.4499 12.0621 44.8121 12.4861C45.175 12.9144 45.319 13.5123 45.215 14.1712Z" fill="#253B80"/>
<path id="Vector_3" d="M61.2202 9.53516H58.8268C58.5984 9.53516 58.3839 9.64861 58.2544 9.83843L54.9533 14.701L53.554 10.0282C53.466 9.73588 53.1962 9.53516 52.8908 9.53516H50.5388C50.253 9.53516 50.0544 9.81443 50.1453 10.0835L52.7817 17.8202L50.3031 21.3192C50.1082 21.5948 50.3046 21.9737 50.6413 21.9737H53.0319C53.2588 21.9737 53.4711 21.8632 53.5999 21.677L61.5606 10.1861C61.7511 9.91116 61.5555 9.53516 61.2202 9.53516Z" fill="#253B80"/>
<path id="Vector_4" d="M69.1448 4.93457H64.1702C63.8306 4.93457 63.5411 5.18184 63.488 5.51784L61.4764 18.272C61.4364 18.5237 61.6313 18.7506 61.8851 18.7506H64.4379C64.675 18.7506 64.8779 18.5775 64.915 18.3418L65.4859 14.7266C65.5382 14.3898 65.8284 14.1426 66.1681 14.1426H67.7419C71.019 14.1426 72.9091 12.5571 73.4037 9.4153C73.627 8.04075 73.4124 6.96075 72.7688 6.20439C72.0626 5.37384 70.8095 4.93457 69.1448 4.93457ZM69.7186 9.59275C69.4473 11.3775 68.0837 11.3775 66.7644 11.3775H66.0146L66.5419 8.04439C66.5731 7.84293 66.7462 7.69457 66.9506 7.69457H67.2946C68.192 7.69457 69.04 7.69457 69.4779 8.20657C69.739 8.51203 69.8182 8.96584 69.7186 9.59275Z" fill="#179BD7"/>
<path id="Vector_5" d="M84.0113 9.53552H81.631C81.4266 9.53552 81.2528 9.68389 81.2223 9.88534L81.1168 10.5515L80.9495 10.3101C80.4339 9.56171 79.2848 9.31152 78.1372 9.31152C75.5052 9.31152 73.2579 11.305 72.8201 14.1013C72.5932 15.4963 72.9153 16.8301 73.7066 17.7603C74.4339 18.6155 75.471 18.9719 76.7066 18.9719C78.8273 18.9719 80.0033 17.6083 80.0033 17.6083L79.8972 18.2701C79.8572 18.5232 80.0521 18.7501 80.3073 18.7501H82.4521C82.7917 18.7501 83.0812 18.5028 83.1343 18.1661L84.4223 10.0141C84.4615 9.76316 84.2666 9.53552 84.0113 9.53552ZM80.6913 14.1712C80.463 15.5319 79.3815 16.4453 78.0041 16.4453C77.3139 16.4453 76.7597 16.2235 76.4048 15.8032C76.0528 15.3857 75.9204 14.7915 76.031 14.1297C76.247 12.7806 77.3437 11.8373 78.7001 11.8373C79.3764 11.8373 79.9263 12.0621 80.2884 12.4861C80.6528 12.9144 80.7968 13.5123 80.6913 14.1712Z" fill="#179BD7"/>
<path id="Vector_6" d="M86.8196 5.28414L84.7782 18.2718C84.7382 18.5234 84.9331 18.7503 85.1869 18.7503H87.2393C87.5804 18.7503 87.8698 18.503 87.9222 18.1663L89.9353 5.41287C89.9753 5.16123 89.7804 4.93359 89.5265 4.93359H87.2284C87.0254 4.93432 86.8509 5.08268 86.8196 5.28414Z" fill="#179BD7"/>
<path id="Vector_7" d="M5.34378 21.2297L5.72415 18.8137L4.87687 18.794H0.831055L3.64269 0.966393C3.65142 0.912575 3.67978 0.862393 3.72124 0.826757C3.76269 0.791121 3.81578 0.771484 3.87105 0.771484H10.6929C12.9576 0.771484 14.5205 1.24276 15.3365 2.17294C15.7191 2.6093 15.9627 3.0653 16.0805 3.56712C16.2041 4.09367 16.2063 4.72276 16.0856 5.49003L16.0769 5.54603V6.03767L16.4594 6.25439C16.7816 6.4253 17.0376 6.62094 17.234 6.84494C17.5612 7.21803 17.7729 7.69221 17.8623 8.25439C17.9547 8.83257 17.9241 9.52058 17.7729 10.2995C17.5983 11.1955 17.3161 11.9758 16.9351 12.6144C16.5845 13.2028 16.138 13.6908 15.6078 14.0689C15.1016 14.4282 14.5001 14.7009 13.8201 14.8755C13.1612 15.0471 12.41 15.1337 11.586 15.1337H11.0551C10.6754 15.1337 10.3067 15.2704 10.0172 15.5155C9.72706 15.7657 9.53506 16.1075 9.47615 16.4813L9.43615 16.6988L8.76415 20.9569L8.7336 21.1133C8.7256 21.1628 8.71178 21.1875 8.69142 21.2042C8.67324 21.2195 8.64705 21.2297 8.6216 21.2297H5.34378Z" fill="#253B80"/>
<path id="Vector_8" d="M16.8216 5.60254C16.8013 5.73272 16.778 5.86581 16.7518 6.00254C15.8522 10.6214 12.7744 12.2171 8.84345 12.2171H6.842C6.36127 12.2171 5.95618 12.5662 5.88127 13.0404L4.85654 19.5393L4.56636 21.3814C4.51763 21.6927 4.75763 21.9734 5.07182 21.9734H8.62163C9.042 21.9734 9.39909 21.668 9.46527 21.2534L9.50018 21.0731L10.1685 16.8316L10.2115 16.5989C10.2769 16.1829 10.6347 15.8774 11.0551 15.8774H11.586C15.0253 15.8774 17.7176 14.4811 18.5045 10.4404C18.8333 8.75236 18.6631 7.3429 17.7933 6.35163C17.53 6.05272 17.2035 5.80472 16.8216 5.60254Z" fill="#179BD7"/>
<path id="Vector_9" d="M15.8806 5.22721C15.7432 5.18721 15.6013 5.15084 15.4559 5.11812C15.3097 5.08612 15.1599 5.05775 15.0057 5.03302C14.4661 4.94575 13.8748 4.9043 13.2413 4.9043H7.89444C7.7628 4.9043 7.63771 4.93412 7.52571 4.98793C7.27917 5.10648 7.09589 5.33993 7.05153 5.62575L5.91407 12.8301L5.88135 13.0403C5.95626 12.5661 6.36135 12.217 6.84208 12.217H8.84353C12.7744 12.217 15.8523 10.6207 16.7519 6.00248C16.7788 5.86575 16.8013 5.73266 16.8217 5.60248C16.5941 5.48175 16.3475 5.37848 16.0821 5.29048C16.0166 5.26866 15.949 5.24757 15.8806 5.22721Z" fill="#222D65"/>
<path id="Vector_10" d="M7.05156 5.62564C7.09593 5.33982 7.2792 5.10637 7.52574 4.98855C7.63847 4.93473 7.76283 4.90491 7.89447 4.90491H13.2414C13.8748 4.90491 14.4661 4.94637 15.0057 5.03364C15.1599 5.05837 15.3097 5.08673 15.4559 5.11873C15.6014 5.15146 15.7432 5.18782 15.8807 5.22782C15.949 5.24819 16.0167 5.26928 16.0828 5.29037C16.3483 5.37837 16.5948 5.48237 16.8225 5.60237C17.0901 3.89546 16.8203 2.73328 15.8974 1.68091C14.8799 0.522367 13.0436 0.0263672 10.6937 0.0263672H3.87193C3.39193 0.0263672 2.98247 0.375458 2.90829 0.850367L0.0668349 18.8613C0.0108349 19.2176 0.285744 19.5391 0.645017 19.5391H4.85665L5.91411 12.83L7.05156 5.62564Z" fill="#253B80"/>
</g>
</svg>
