<svg width="93" height="22" viewBox="0 0 93 22" fill="none" xmlns="http://www.w3.org/2000/svg">
<g id="Clip path group">
<mask id="mask0_4_2293" style="mask-type:luminance" maskUnits="userSpaceOnUse" x="0" y="0" width="93" height="22">
<g id="clip0">
<path id="Vector" d="M92.1259 0.00244141H0.540527V21.9973H92.1259V0.00244141Z" fill="white"/>
</g>
</mask>
<g mask="url(#mask0_4_2293)">
<g id="Group">
<path id="Vector_2" d="M24.0036 6.91691C23.2691 5.37599 21.8766 4.38063 19.7781 4.38063C19.134 4.39185 18.5011 4.5509 17.9282 4.84541C17.3553 5.13996 16.8577 5.56216 16.4738 6.07944L16.3972 6.17275V0.133553C16.3972 0.0986506 16.3834 0.0651798 16.3587 0.0405006C16.334 0.0158207 16.3005 0.00195312 16.2656 0.00195312H13.2986C13.2642 0.00258026 13.2313 0.0167207 13.2072 0.0413326C13.1829 0.0659446 13.1694 0.0990613 13.1694 0.133553V17.4568C13.1694 17.4911 13.1831 17.5239 13.2073 17.5481C13.2315 17.5724 13.2644 17.586 13.2986 17.586H16.4762C16.5107 17.586 16.5438 17.5725 16.5684 17.5483C16.593 17.5241 16.6071 17.4913 16.6078 17.4568V10.0705C16.6078 8.63488 17.5649 7.61796 19.0962 7.61796C20.7711 7.61796 21.1946 8.99617 21.1946 10.4007V17.4568C21.1946 17.4911 21.2082 17.5239 21.2324 17.5481C21.2567 17.5724 21.2896 17.586 21.3238 17.586H24.4941C24.5287 17.586 24.5618 17.5725 24.5864 17.5483C24.611 17.5241 24.6252 17.4913 24.6258 17.4568V9.97957C24.6258 9.72355 24.6258 9.4723 24.5923 9.22826C24.5378 8.4285 24.3384 7.64528 24.0036 6.91691Z" fill="white"/>
<path id="Vector_3" d="M8.13749 9.48451C8.13749 9.48451 6.52001 9.10406 5.92423 8.95093C5.32842 8.7978 4.28759 8.47239 4.28759 7.68518C4.28759 6.89798 5.12743 6.64673 5.97926 6.64673C6.83106 6.64673 7.77859 6.85251 7.85276 7.79764C7.85575 7.83171 7.87143 7.86337 7.89667 7.88645C7.92194 7.90949 7.95493 7.92217 7.98913 7.92207L11.1212 7.9101C11.1396 7.91014 11.1579 7.90639 11.1748 7.89907C11.1917 7.89175 11.2069 7.88102 11.2195 7.86752C11.2321 7.85407 11.2417 7.83814 11.2479 7.82077C11.254 7.80337 11.2565 7.78491 11.2552 7.76652C11.0614 4.74215 8.40785 3.66064 5.9601 3.66064C3.05773 3.66064 0.935407 5.57481 0.935407 7.68518C0.935407 9.22609 1.37088 10.6713 4.79484 11.6762C5.39542 11.8509 6.21135 12.0782 6.92439 12.2768C7.78097 12.5161 8.24275 12.8774 8.24275 13.4468C8.24275 14.1072 7.28568 14.5666 6.34535 14.5666C4.98389 14.5666 4.01723 14.0618 3.93826 13.1549C3.93415 13.1217 3.918 13.0912 3.89284 13.0691C3.8677 13.0471 3.83533 13.035 3.80187 13.0353L0.676994 13.0496C0.658674 13.0496 0.640542 13.0533 0.623675 13.0605C0.606808 13.0676 0.591555 13.0781 0.578826 13.0913C0.566097 13.1044 0.556151 13.1201 0.549585 13.1371C0.54302 13.1543 0.539969 13.1725 0.540611 13.1908C0.684174 16.0453 3.44058 17.5838 6.01038 17.5838C9.83872 17.5838 11.5686 15.4304 11.5686 13.4133C11.5734 12.4658 11.3557 10.3076 8.13749 9.48451Z" fill="white"/>
<path id="Vector_4" d="M48.4306 4.37585C46.8397 4.37585 45.5068 5.25636 44.6478 6.31876V4.50027C44.6478 4.46641 44.6344 4.43389 44.6107 4.40975C44.5873 4.38558 44.5549 4.37169 44.5209 4.37109H41.5493C41.5152 4.37109 41.4821 4.38467 41.4579 4.4089C41.4337 4.43315 41.4199 4.46603 41.4199 4.50027V21.4886C41.4208 21.5223 41.4348 21.5547 41.459 21.5783C41.4831 21.6021 41.5156 21.6154 41.5493 21.6154H44.7293C44.7628 21.6154 44.795 21.6021 44.8188 21.5783C44.8425 21.5545 44.8559 21.5221 44.8559 21.4886V15.904H44.9039C45.4086 16.6744 46.7892 17.598 48.5936 17.598C51.9861 17.598 54.8145 14.7842 54.8145 10.9821C54.817 7.33327 52.003 4.37585 48.4306 4.37585ZM48.1364 14.3607C47.4668 14.3773 46.8068 14.194 46.2419 13.8341C45.6769 13.4742 45.2316 12.9541 44.9633 12.3402C44.6951 11.7262 44.6158 11.0463 44.7358 10.3871C44.8555 9.72789 45.1693 9.11938 45.6364 8.63922C46.1038 8.159 46.7035 7.82893 47.3593 7.69112C48.0148 7.55331 48.6967 7.61396 49.3176 7.86538C49.9388 8.11678 50.4707 8.54755 50.846 9.10268C51.2211 9.65784 51.4222 10.3121 51.4241 10.9821C51.4309 11.4201 51.3511 11.8551 51.1897 12.2622C51.0282 12.6694 50.7876 13.0405 50.4821 13.3545C50.1769 13.6684 49.8124 13.9189 49.4095 14.0915C49.0071 14.2642 48.5745 14.3557 48.1364 14.3607Z" fill="white"/>
<path id="Vector_5" d="M32.0098 3.62939C29.0452 3.62939 27.5666 4.63673 26.3796 5.44309L26.3437 5.467C26.2826 5.50888 26.2396 5.57235 26.2232 5.64465C26.2067 5.71698 26.2181 5.7928 26.2553 5.85702L27.4278 7.87643C27.4497 7.91424 27.4798 7.94672 27.5156 7.97152C27.5517 7.99634 27.5926 8.01291 27.6359 8.02002C27.6781 8.02763 27.7214 8.02579 27.7628 8.01461C27.8042 8.00343 27.8426 7.98325 27.8752 7.9554L27.9684 7.87885C28.5785 7.36681 29.5572 6.68247 31.926 6.49584C33.2443 6.3906 34.3834 6.73513 35.2233 7.51994C36.1468 8.37176 36.6996 9.74756 36.6996 11.1999C36.6996 13.8726 35.125 15.5523 32.596 15.5858C30.5118 15.5738 29.1121 14.4875 29.1121 12.882C29.1121 12.0302 29.4973 11.4751 30.2488 10.92C30.306 10.879 30.3466 10.8186 30.3629 10.7499C30.3792 10.6813 30.3701 10.6091 30.3372 10.5467L29.2845 8.55597C29.265 8.52035 29.2387 8.48891 29.2071 8.46345C29.1755 8.438 29.1392 8.41903 29.1002 8.40764C29.0603 8.39578 29.0185 8.39243 28.9774 8.39775C28.936 8.40312 28.8963 8.41708 28.8609 8.43876C27.679 9.13981 26.2289 10.4223 26.3079 12.8868C26.4035 16.0236 29.0117 18.4187 32.4021 18.5169H32.572H32.8041C36.8333 18.3852 39.7429 15.3944 39.7429 11.3387C39.7429 7.61564 37.0295 3.62939 32.0098 3.62939Z" fill="white"/>
<path id="Vector_6" d="M67.3452 5.54346H65.3255C65.2784 5.54407 65.233 5.56319 65.1995 5.59669C65.1658 5.63021 65.1467 5.6755 65.1465 5.72292V9.96039C65.1467 10.0076 65.166 10.0526 65.1997 10.0857C65.2333 10.1189 65.2784 10.1375 65.3255 10.1375H67.3452C68.575 10.1375 69.482 9.16841 69.482 7.84045C69.482 6.5125 68.575 5.54346 67.3452 5.54346Z" fill="white"/>
<path id="Vector_7" d="M73.5493 13.04C73.5493 13.6549 74.0685 13.997 74.9728 13.997C76.2027 13.997 76.9299 13.3319 76.9299 12.1522V11.8125L75.0878 11.9082C74.1162 11.956 73.5493 12.3604 73.5493 13.04Z" fill="white"/>
<path id="Vector_8" d="M88.5037 0.0405485H61.3703C60.9254 0.0405481 60.4843 0.128264 60.0734 0.29868C59.662 0.469096 59.2884 0.718875 58.974 1.03374C58.6592 1.34861 58.4097 1.72239 58.2395 2.13373C58.0692 2.54507 57.982 2.9859 57.9824 3.43103V18.285C57.9824 19.1838 58.3393 20.0458 58.9746 20.6816C59.61 21.3173 60.4718 21.6748 61.3703 21.6754H88.5037C88.9494 21.6767 89.3911 21.5902 89.8033 21.4206C90.2153 21.2511 90.5899 21.0019 90.9058 20.6875C91.2213 20.373 91.4723 19.9994 91.6437 19.588C91.8149 19.1766 91.9032 18.7354 91.904 18.2898V3.43581C91.9046 2.98927 91.8175 2.54694 91.6469 2.13426C91.4763 1.7216 91.2258 1.34672 90.9099 1.03118C90.594 0.715655 90.2187 0.465699 89.8058 0.295691C89.393 0.125681 88.9504 0.0389705 88.5037 0.0405485ZM67.4477 11.8055H65.3135C65.266 11.8055 65.2206 11.8244 65.1866 11.8581C65.1531 11.8917 65.134 11.9374 65.134 11.985V15.0237C65.134 15.0713 65.1151 15.117 65.0816 15.1506C65.0479 15.1843 65.0025 15.2032 64.9547 15.2032H63.4519C63.4048 15.2026 63.3592 15.1834 63.3256 15.1499C63.2921 15.1164 63.2735 15.0711 63.2726 15.0237V4.06269C63.2726 4.01513 63.2915 3.96947 63.3254 3.9358C63.3589 3.90216 63.4043 3.88325 63.4519 3.88325H67.4477C69.7114 3.88325 71.3311 5.53183 71.3311 7.84559C71.3311 10.1593 69.7233 11.8103 67.46 11.8103L67.4477 11.8055ZM78.6936 15.0213C78.694 15.0451 78.6898 15.0687 78.6807 15.0907C78.6718 15.1128 78.6586 15.1329 78.6421 15.1498C78.6251 15.1667 78.6054 15.1801 78.5833 15.1893C78.5616 15.1984 78.5379 15.2032 78.5141 15.2032H77.0953C77.0715 15.2032 77.048 15.1984 77.0261 15.1893C77.004 15.1801 76.9841 15.1667 76.9676 15.1498C76.951 15.1329 76.9376 15.1128 76.9289 15.0907C76.92 15.0687 76.9156 15.0451 76.916 15.0213V14.6935C76.9181 14.6648 76.9113 14.636 76.8958 14.6116C76.8808 14.5871 76.8581 14.5682 76.8309 14.5577C76.8042 14.5472 76.7747 14.5457 76.7469 14.5534C76.7189 14.561 76.6943 14.5774 76.6767 14.6002C76.253 15.062 75.564 15.397 74.4657 15.397C72.8484 15.397 71.7786 14.5548 71.7786 13.1C71.7631 12.7453 71.8363 12.3923 71.9918 12.073C72.1471 11.7538 72.38 11.4784 72.669 11.272C73.2526 10.8341 74.157 10.6068 75.4993 10.5541L76.923 10.5063V10.0899C76.923 9.25009 76.3583 8.89359 75.4513 8.89359C74.5446 8.89359 73.9726 9.21421 73.839 9.73822C73.8281 9.77522 73.8054 9.8076 73.7741 9.83015C73.7431 9.85272 73.7051 9.86413 73.6665 9.86263H72.2621C72.2362 9.86329 72.2105 9.85824 72.1867 9.84793C72.1634 9.83757 72.142 9.82217 72.1248 9.80278C72.1078 9.78337 72.0951 9.76052 72.0879 9.7357C72.0805 9.7109 72.0785 9.68483 72.0826 9.65926C72.2932 8.41504 73.322 7.46991 75.5162 7.46991C77.8467 7.46991 78.6864 8.55383 78.6864 10.6235L78.6936 15.0213ZM87.5324 7.91017L84.3742 16.3349C83.6562 18.2921 82.4001 18.7946 81.0241 18.7946C80.765 18.801 80.5062 18.7695 80.2561 18.7013C80.2171 18.6908 80.1829 18.6678 80.1579 18.6358C80.1335 18.6038 80.1201 18.5646 80.1197 18.5243V17.2441C80.1197 17.2174 80.1254 17.1909 80.1367 17.1666C80.1481 17.1424 80.1644 17.1209 80.185 17.1037C80.2058 17.0866 80.2298 17.0742 80.2557 17.0675C80.2816 17.0607 80.3087 17.0598 80.335 17.0647C80.552 17.1058 80.7723 17.1267 80.9931 17.1269C81.3735 17.146 81.7494 17.0368 82.0606 16.8169C82.3715 16.5969 82.5997 16.2789 82.7086 15.9138L82.8021 15.6195C82.8165 15.5801 82.8165 15.5369 82.8021 15.4975L79.8494 7.91258C79.8403 7.88547 79.8377 7.85658 79.8422 7.82832C79.8464 7.80004 79.8573 7.77316 79.8734 7.74987C79.8901 7.72657 79.912 7.7075 79.9372 7.69418C79.9625 7.68087 79.9907 7.6737 80.0191 7.6733H81.455C81.4917 7.67366 81.5273 7.68499 81.5576 7.70591C81.588 7.72678 81.6113 7.75627 81.6247 7.79056L83.6299 13.1407C83.6433 13.1756 83.6666 13.2057 83.6974 13.227C83.7284 13.2482 83.7649 13.2596 83.8022 13.2596C83.8393 13.2596 83.8762 13.2482 83.9068 13.227C83.9375 13.2057 83.9613 13.1756 83.9742 13.1407L85.7141 7.80492C85.7255 7.76853 85.7487 7.73684 85.7796 7.71446C85.8106 7.69205 85.8477 7.68015 85.8859 7.68049H87.3578C87.386 7.68036 87.4141 7.68698 87.4397 7.69967C87.465 7.7124 87.4872 7.7309 87.5042 7.75371C87.5212 7.77651 87.5324 7.80297 87.5373 7.83099C87.5424 7.85897 87.5407 7.88774 87.5324 7.91496V7.91017Z" fill="white"/>
</g>
</g>
</g>
</svg>
